<?xml version="1.0" encoding="UTF-8"?>
<svg version="1.1" viewBox="0 0 36 36" xml:space="preserve" xmlns="http://www.w3.org/2000/svg"><path d="m0 29c0 2.209 1.791 4 4 4h24c2.209 0 4-1.791 4-4v-17c0-2.209-1.791-4-4-4h-9c-3.562 0-3-5-8.438-5h-6.562c-2.209 0-4 1.791-4 4z" fill="#269"/><path d="m30 10h-6.562c-5.438 0-4.876 5-8.438 5h-9c-2.209 0-4 1.791-4 4v10c0 0.553-0.448 1-1 1s-1-0.447-1-1c0 2.209 1.791 4 4 4h26c2.209 0 4-1.791 4-4v-15c0-2.209-1.791-4-4-4z" fill="#55acee"/><g transform="matrix(.10968 0 0 .10968 18.934 16.855)"><path d="m-16.727 132.17c-4.0499-1.8396-88.131-86.316-89.454-89.874-1.4615-3.9323-1.3036-10.158 0.35415-13.967 1.8047-4.1469 86.163-88.277 89.915-89.672 3.605-1.3399 9.7648-1.3399 13.37 0 3.7515 1.3943 88.11 85.525 89.915 89.672 1.7908 4.1148 1.7908 10.449 0 14.564-1.8047 4.1469-86.163 88.277-89.915 89.672-3.8588 1.4342-10.57 1.2474-14.185-0.39467zm13.782-13.954c1.8039-0.78215 19.335-17.59 39.896-38.25 39.672-39.863 39.009-39.009 37.367-48.105-0.59172-3.2773-5.4272-8.5001-38.361-41.434-32.934-32.934-38.157-37.77-41.434-38.361-9.1376-1.6498-8.145-2.428-48.934 38.361-32.934 32.934-37.77 38.157-38.361 41.434-1.6422 9.0957-2.3055 8.2419 37.367 48.103 20.173 20.269 38.029 37.464 39.679 38.211 3.9055 1.7672 8.7643 1.7826 12.782 0.0405zm-47.517-41.37-36.765-36.765v-8.9396l73.53-73.53h8.9396l73.53 73.53v8.9396l-73.53 73.53h-8.9396zm33.014-17.351 0.27888-12.616 12.407-0.47795c11.172-0.43038 12.986-0.76717 18.221-3.3839 6.3387-3.1681 9.6236-7.1374 11.426-13.807 2.1076-7.7971-0.65862-19.168-5.7924-23.811-1.0411-0.94149-4.1265-2.7337-6.8564-3.9827-4.4996-2.0587-6.7625-2.3045-24.213-2.6302l-19.25-0.35933v74.275l13.5-0.59138zm0.22112-36.884v-9h10.453c5.7491 0 11.549 0.49962 12.89 1.1103 2.6018 1.1855 4.6573 4.7103 4.6573 7.9864 0 2.7917-2.6042 7.5374-4.5448 8.2821-0.89032 0.34165-6.532 0.62118-12.537 0.62118h-10.918z" fill="#f8ae3f"/><path d="m-15.727 118.17c-1.65-0.74663-19.505-17.942-39.679-38.211-39.672-39.861-39.009-39.008-37.367-48.103 0.59172-3.2773 5.4272-8.5001 38.361-41.434 40.789-40.789 39.797-40.011 48.934-38.361 3.2773 0.59172 8.5001 5.4272 41.434 38.361 32.934 32.934 37.77 38.157 38.361 41.434 1.6422 9.0956 2.3053 8.2419-37.367 48.105-20.561 20.66-38.093 37.468-39.896 38.25-4.0178 1.7421-8.8767 1.7267-12.782-0.0405zm47.735-41.329 36.765-36.765v-8.9396l-73.53-73.53h-8.9396l-73.53 73.53v8.9396l73.53 73.53h8.9396zm-63.235-41.281v-37.138l19.25 0.35933c17.451 0.32575 19.714 0.57156 24.213 2.6302 2.7299 1.249 5.8153 3.0412 6.8564 3.9827 5.1337 4.6425 7.9 16.014 5.7924 23.811-1.8028 6.6696-5.0878 10.639-11.426 13.807-5.2356 2.6167-7.0491 2.9535-18.221 3.3839l-12.407 0.47795-0.55775 25.232-13.5 0.59138zm37.455-4.5748c1.9406-0.74468 4.5448-5.4904 4.5448-8.2821 0-3.2762-2.0555-6.801-4.6573-7.9864-1.3402-0.61065-7.1406-1.1103-12.89-1.1103h-10.453v18h10.918c6.005 0 11.647-0.27953 12.537-0.62118z" fill="#080620"/></g></svg>
